<svg width="50" height="51" viewBox="0 0 50 51" fill="none" xmlns="http://www.w3.org/2000/svg">
<path d="M25 0.0117188C11.2196 0.0117188 0 11.2221 0 25.0117C0 38.8013 11.2104 50.0117 25 50.0117C38.7896 50.0117 50 38.8013 50 25.0117C50 11.2313 38.7896 0.0117188 25 0.0117188ZM25 45.7099C22.4576 45.7099 20.0166 45.2494 17.7598 44.4019C18.6717 43.5821 19.6205 41.7951 19.8047 41.2147C20.035 40.5147 19.2705 38.7 19.2705 38.3407C19.2705 37.9815 17.1242 35.476 16.5807 35.1167C16.0464 34.7575 16.5807 32.7862 16.5807 31.515C16.5807 30.2439 13.7159 29.5622 12.6382 28.8437C11.5604 28.1252 11.2012 30.815 9.94841 30.2807C8.69565 29.7464 8.87068 27.9502 8.69566 26.5224C8.5667 25.4815 5.81247 25.1683 4.30179 25.067C4.30179 25.0486 4.30179 25.0393 4.30179 25.0209C4.30179 15.9476 10.1695 8.2284 18.3125 5.43732C18.2388 5.51101 18.1559 5.59388 18.0914 5.67679C17.4005 6.66242 16.1109 5.67682 16.461 8.75346C16.811 11.8301 16.3412 13.2579 18.5704 13.7C20.7904 14.1422 21.6102 13.5895 23.1301 13.7C24.65 13.8105 24.5578 17.6333 24.9171 17.6978C24.9171 17.6978 26.916 23.1971 32.7653 24.7722C34.0089 25.1038 31.4757 27.6646 29.7255 28.4292C27.9661 29.1937 26.3357 29.3043 26.0962 31.1742C25.8567 33.0442 28.5556 31.9388 29.2557 32.2704C29.9558 32.602 32.9864 33.7534 34.2299 32.0401C35.4735 30.3268 40.5398 30.9071 40.0792 29.074C39.0291 24.9196 45.9561 23.0312 43.9388 20.2862C43.4783 19.6598 43.5704 17.7438 43.4322 15.6344C44.8784 18.4531 45.6982 21.6495 45.6982 25.0301C45.6982 36.4248 36.4131 45.7099 25 45.7099Z" fill="#3F3631"/>
</svg>
