<svg width="19" height="16" viewBox="0 0 19 16" fill="none" xmlns="http://www.w3.org/2000/svg">
<path fill-rule="evenodd" clip-rule="evenodd" d="M14.6451 15.9336C14.5043 15.9336 14.2229 15.9336 14.0821 15.8027L9.57866 12.7927L5.07518 15.8027C4.79372 16.0645 4.37151 16.0645 4.09004 15.8027C3.80858 15.541 3.66785 15.2792 3.80858 14.8866L5.49738 9.9135L0.993909 6.90346C0.712442 6.64172 0.571702 6.37997 0.712436 5.98736C0.853169 5.59474 1.13465 5.46387 1.55685 5.46387H7.18619L8.87499 0.490768C9.15646 -0.163589 10.2823 -0.163589 10.5638 0.490768L12.2526 5.46387H17.8819C18.3041 5.46387 18.5856 5.72562 18.7263 5.98736C18.8671 6.2491 18.7263 6.64172 18.4449 6.90346L13.6599 9.9135L15.3487 14.8866C15.4895 15.2792 15.3487 15.541 15.0673 15.8027C14.9265 15.9336 14.7858 15.9336 14.6451 15.9336Z" fill="#FFAD00"/>
</svg>
