<svg width="167" height="31" viewBox="0 0 167 31" fill="none" xmlns="http://www.w3.org/2000/svg">
<path d="M0.84 14.1C0.84 12.38 1.16 10.87 1.8 9.57C2.46 8.27 3.35 7.27 4.47 6.57C5.59 5.87 6.84 5.52 8.22 5.52C9.32 5.52 10.32 5.75 11.22 6.21C12.14 6.67 12.86 7.29 13.38 8.07V0.3H18.51V22.5H13.38V20.1C12.9 20.9 12.21 21.54 11.31 22.02C10.43 22.5 9.4 22.74 8.22 22.74C6.84 22.74 5.59 22.39 4.47 21.69C3.35 20.97 2.46 19.96 1.8 18.66C1.16 17.34 0.84 15.82 0.84 14.1ZM13.38 14.13C13.38 12.85 13.02 11.84 12.3 11.1C11.6 10.36 10.74 9.99 9.72 9.99C8.7 9.99 7.83 10.36 7.11 11.1C6.41 11.82 6.06 12.82 6.06 14.1C6.06 15.38 6.41 16.4 7.11 17.16C7.83 17.9 8.7 18.27 9.72 18.27C10.74 18.27 11.6 17.9 12.3 17.16C13.02 16.42 13.38 15.41 13.38 14.13ZM38.0013 13.86C38.0013 14.34 37.9713 14.84 37.9113 15.36H26.3013C26.3813 16.4 26.7113 17.2 27.2913 17.76C27.8913 18.3 28.6213 18.57 29.4813 18.57C30.7613 18.57 31.6513 18.03 32.1513 16.95H37.6113C37.3313 18.05 36.8213 19.04 36.0813 19.92C35.3613 20.8 34.4513 21.49 33.3513 21.99C32.2513 22.49 31.0213 22.74 29.6613 22.74C28.0213 22.74 26.5613 22.39 25.2813 21.69C24.0013 20.99 23.0013 19.99 22.2813 18.69C21.5613 17.39 21.2013 15.87 21.2013 14.13C21.2013 12.39 21.5513 10.87 22.2513 9.57C22.9713 8.27 23.9713 7.27 25.2513 6.57C26.5313 5.87 28.0013 5.52 29.6613 5.52C31.2813 5.52 32.7213 5.86 33.9813 6.54C35.2413 7.22 36.2213 8.19 36.9213 9.45C37.6413 10.71 38.0013 12.18 38.0013 13.86ZM32.7513 12.51C32.7513 11.63 32.4513 10.93 31.8513 10.41C31.2513 9.89 30.5013 9.63 29.6013 9.63C28.7413 9.63 28.0113 9.88 27.4113 10.38C26.8313 10.88 26.4713 11.59 26.3313 12.51H32.7513ZM56.4877 13.86C56.4877 14.34 56.4577 14.84 56.3977 15.36H44.7877C44.8677 16.4 45.1977 17.2 45.7777 17.76C46.3777 18.3 47.1077 18.57 47.9677 18.57C49.2477 18.57 50.1377 18.03 50.6377 16.95H56.0977C55.8177 18.05 55.3077 19.04 54.5677 19.92C53.8477 20.8 52.9377 21.49 51.8377 21.99C50.7377 22.49 49.5077 22.74 48.1477 22.74C46.5077 22.74 45.0477 22.39 43.7677 21.69C42.4877 20.99 41.4877 19.99 40.7677 18.69C40.0477 17.39 39.6877 15.87 39.6877 14.13C39.6877 12.39 40.0377 10.87 40.7377 9.57C41.4577 8.27 42.4577 7.27 43.7377 6.57C45.0177 5.87 46.4877 5.52 48.1477 5.52C49.7677 5.52 51.2077 5.86 52.4677 6.54C53.7277 7.22 54.7077 8.19 55.4077 9.45C56.1277 10.71 56.4877 12.18 56.4877 13.86ZM51.2377 12.51C51.2377 11.63 50.9377 10.93 50.3377 10.41C49.7377 9.89 48.9877 9.63 48.0877 9.63C47.2277 9.63 46.4977 9.88 45.8977 10.38C45.3177 10.88 44.9577 11.59 44.8177 12.51H51.2377ZM64.324 8.13C64.824 7.35 65.514 6.72 66.394 6.24C67.274 5.76 68.304 5.52 69.484 5.52C70.864 5.52 72.114 5.87 73.234 6.57C74.354 7.27 75.234 8.27 75.874 9.57C76.534 10.87 76.864 12.38 76.864 14.1C76.864 15.82 76.534 17.34 75.874 18.66C75.234 19.96 74.354 20.97 73.234 21.69C72.114 22.39 70.864 22.74 69.484 22.74C68.324 22.74 67.294 22.5 66.394 22.02C65.514 21.54 64.824 20.92 64.324 20.16V30.48H59.194V5.76H64.324V8.13ZM71.644 14.1C71.644 12.82 71.284 11.82 70.564 11.1C69.864 10.36 68.994 9.99 67.954 9.99C66.934 9.99 66.064 10.36 65.344 11.1C64.644 11.84 64.294 12.85 64.294 14.13C64.294 15.41 64.644 16.42 65.344 17.16C66.064 17.9 66.934 18.27 67.954 18.27C68.974 18.27 69.844 17.9 70.564 17.16C71.284 16.4 71.644 15.38 71.644 14.1ZM92.7227 22.74C91.2627 22.74 89.9627 22.49 88.8227 21.99C87.6827 21.49 86.7827 20.81 86.1227 19.95C85.4627 19.07 85.0927 18.09 85.0127 17.01H90.0827C90.1427 17.59 90.4127 18.06 90.8927 18.42C91.3727 18.78 91.9627 18.96 92.6627 18.96C93.3027 18.96 93.7927 18.84 94.1327 18.6C94.4927 18.34 94.6727 18.01 94.6727 17.61C94.6727 17.13 94.4227 16.78 93.9227 16.56C93.4227 16.32 92.6127 16.06 91.4927 15.78C90.2927 15.5 89.2927 15.21 88.4927 14.91C87.6927 14.59 87.0027 14.1 86.4227 13.44C85.8427 12.76 85.5527 11.85 85.5527 10.71C85.5527 9.75 85.8127 8.88 86.3327 8.1C86.8727 7.3 87.6527 6.67 88.6727 6.21C89.7127 5.75 90.9427 5.52 92.3627 5.52C94.4627 5.52 96.1127 6.04 97.3127 7.08C98.5327 8.12 99.2327 9.5 99.4127 11.22H94.6727C94.5927 10.64 94.3327 10.18 93.8927 9.84C93.4727 9.5 92.9127 9.33 92.2127 9.33C91.6127 9.33 91.1527 9.45 90.8327 9.69C90.5127 9.91 90.3527 10.22 90.3527 10.62C90.3527 11.1 90.6027 11.46 91.1027 11.7C91.6227 11.94 92.4227 12.18 93.5027 12.42C94.7427 12.74 95.7527 13.06 96.5327 13.38C97.3127 13.68 97.9927 14.18 98.5727 14.88C99.1727 15.56 99.4827 16.48 99.5027 17.64C99.5027 18.62 99.2227 19.5 98.6627 20.28C98.1227 21.04 97.3327 21.64 96.2927 22.08C95.2727 22.52 94.0827 22.74 92.7227 22.74ZM107.771 0.3V22.5H102.641V0.3H107.771ZM127.269 13.86C127.269 14.34 127.239 14.84 127.179 15.36H115.569C115.649 16.4 115.979 17.2 116.559 17.76C117.159 18.3 117.889 18.57 118.749 18.57C120.029 18.57 120.919 18.03 121.419 16.95H126.879C126.599 18.05 126.089 19.04 125.349 19.92C124.629 20.8 123.719 21.49 122.619 21.99C121.519 22.49 120.289 22.74 118.929 22.74C117.289 22.74 115.829 22.39 114.549 21.69C113.269 20.99 112.269 19.99 111.549 18.69C110.829 17.39 110.469 15.87 110.469 14.13C110.469 12.39 110.819 10.87 111.519 9.57C112.239 8.27 113.239 7.27 114.519 6.57C115.799 5.87 117.269 5.52 118.929 5.52C120.549 5.52 121.989 5.86 123.249 6.54C124.509 7.22 125.489 8.19 126.189 9.45C126.909 10.71 127.269 12.18 127.269 13.86ZM122.019 12.51C122.019 11.63 121.719 10.93 121.119 10.41C120.519 9.89 119.769 9.63 118.869 9.63C118.009 9.63 117.279 9.88 116.679 10.38C116.099 10.88 115.739 11.59 115.599 12.51H122.019ZM145.755 13.86C145.755 14.34 145.725 14.84 145.665 15.36H134.055C134.135 16.4 134.465 17.2 135.045 17.76C135.645 18.3 136.375 18.57 137.235 18.57C138.515 18.57 139.405 18.03 139.905 16.95H145.365C145.085 18.05 144.575 19.04 143.835 19.92C143.115 20.8 142.205 21.49 141.105 21.99C140.005 22.49 138.775 22.74 137.415 22.74C135.775 22.74 134.315 22.39 133.035 21.69C131.755 20.99 130.755 19.99 130.035 18.69C129.315 17.39 128.955 15.87 128.955 14.13C128.955 12.39 129.305 10.87 130.005 9.57C130.725 8.27 131.725 7.27 133.005 6.57C134.285 5.87 135.755 5.52 137.415 5.52C139.035 5.52 140.475 5.86 141.735 6.54C142.995 7.22 143.975 8.19 144.675 9.45C145.395 10.71 145.755 12.18 145.755 13.86ZM140.505 12.51C140.505 11.63 140.205 10.93 139.605 10.41C139.005 9.89 138.255 9.63 137.355 9.63C136.495 9.63 135.765 9.88 135.165 10.38C134.585 10.88 134.225 11.59 134.085 12.51H140.505ZM153.592 8.13C154.092 7.35 154.782 6.72 155.662 6.24C156.542 5.76 157.572 5.52 158.752 5.52C160.132 5.52 161.382 5.87 162.502 6.57C163.622 7.27 164.502 8.27 165.142 9.57C165.802 10.87 166.132 12.38 166.132 14.1C166.132 15.82 165.802 17.34 165.142 18.66C164.502 19.96 163.622 20.97 162.502 21.69C161.382 22.39 160.132 22.74 158.752 22.74C157.592 22.74 156.562 22.5 155.662 22.02C154.782 21.54 154.092 20.92 153.592 20.16V30.48H148.462V5.76H153.592V8.13ZM160.912 14.1C160.912 12.82 160.552 11.82 159.832 11.1C159.132 10.36 158.262 9.99 157.222 9.99C156.202 9.99 155.332 10.36 154.612 11.1C153.912 11.84 153.562 12.85 153.562 14.13C153.562 15.41 153.912 16.42 154.612 17.16C155.332 17.9 156.202 18.27 157.222 18.27C158.242 18.27 159.112 17.9 159.832 17.16C160.552 16.4 160.912 15.38 160.912 14.1Z" fill="url(#paint0_linear_3_271)"/>
<defs>
<linearGradient id="paint0_linear_3_271" x1="0" y1="34.5" x2="167" y2="34.5" gradientUnits="userSpaceOnUse">
<stop stop-color="#2E034B"/>
<stop offset="0.5" stop-color="#002182"/>
<stop offset="1" stop-color="#2E034B"/>
</linearGradient>
</defs>
</svg>
