<svg width="139" height="17" viewBox="0 0 139 17" fill="none" xmlns="http://www.w3.org/2000/svg">
<path fill-rule="evenodd" clip-rule="evenodd" d="M13.9878 15.9463C13.8471 15.9463 13.5656 15.9463 13.4249 15.8154L8.92143 12.8054L4.41796 15.8154C4.13649 16.0772 3.71428 16.0772 3.43282 15.8154C3.15135 15.5537 3.01062 15.2919 3.15135 14.8993L4.84015 9.9262L0.336683 6.91616C0.0552158 6.65441 -0.0855242 6.39267 0.0552093 6.00005C0.195943 5.60744 0.477419 5.47657 0.899619 5.47657H6.52896L8.21776 0.503464C8.49923 -0.150894 9.62509 -0.150894 9.90656 0.503464L11.5954 5.47657H17.2247C17.6469 5.47657 17.9284 5.73831 18.0691 6.00005C18.2098 6.2618 18.0691 6.65441 17.7876 6.91616L13.0027 9.9262L14.6915 14.8993C14.8322 15.2919 14.6915 15.5537 14.41 15.8154C14.2693 15.9463 14.1286 15.9463 13.9878 15.9463Z" fill="#FFAD00"/>
<path fill-rule="evenodd" clip-rule="evenodd" d="M44.2085 15.9453C44.0678 15.9453 43.7863 15.9453 43.6456 15.8144L39.1421 12.8044L34.6387 15.8144C34.3572 16.0762 33.935 16.0762 33.6535 15.8144C33.3721 15.5527 33.2313 15.291 33.3721 14.8983L35.0609 9.92522L30.5574 6.91518C30.2759 6.65344 30.1352 6.39169 30.2759 5.99908C30.4166 5.60646 30.6981 5.47559 31.1203 5.47559H36.7497L38.4385 0.502487C38.7199 -0.151871 39.8458 -0.151871 40.1273 0.502487L41.8161 5.47559H47.4454C47.8676 5.47559 48.1491 5.73734 48.2898 5.99908C48.4305 6.26082 48.2898 6.65344 48.0084 6.91518L43.2234 9.92522L44.9122 14.8983C45.0529 15.291 44.9122 15.5527 44.6307 15.8144C44.49 15.9453 44.3493 15.9453 44.2085 15.9453Z" fill="#FFAD00"/>
<path fill-rule="evenodd" clip-rule="evenodd" d="M74.4263 15.9453C74.2856 15.9453 74.0041 15.9453 73.8634 15.8144L69.3599 12.8044L64.8564 15.8144C64.575 16.0762 64.1528 16.0762 63.8713 15.8144C63.5898 15.5527 63.4491 15.291 63.5898 14.8983L65.2786 9.92522L60.7752 6.91518C60.4937 6.65344 60.353 6.39169 60.4937 5.99908C60.6344 5.60646 60.9159 5.47559 61.3381 5.47559H66.9674L68.6562 0.502487C68.9377 -0.151871 70.0636 -0.151871 70.345 0.502487L72.0338 5.47559H77.6632C78.0854 5.47559 78.3669 5.73734 78.5076 5.99908C78.6483 6.26082 78.5076 6.65344 78.2261 6.91518L73.4412 9.92522L75.13 14.8983C75.2707 15.291 75.13 15.5527 74.8485 15.8144C74.7078 15.9453 74.567 15.9453 74.4263 15.9453Z" fill="#FFAD00"/>
<path fill-rule="evenodd" clip-rule="evenodd" d="M104.645 15.9453C104.504 15.9453 104.223 15.9453 104.082 15.8144L99.5787 12.8044L95.0752 15.8144C94.7937 16.0762 94.3715 16.0762 94.09 15.8144C93.8086 15.5527 93.6678 15.291 93.8086 14.8983L95.4974 9.92522L90.9939 6.91518C90.7124 6.65344 90.5717 6.39169 90.7124 5.99908C90.8532 5.60646 91.1346 5.47559 91.5568 5.47559H97.1862L98.875 0.502487C99.1565 -0.151871 100.282 -0.151871 100.564 0.502487L102.253 5.47559H107.882C108.304 5.47559 108.586 5.73734 108.726 5.99908C108.867 6.26082 108.726 6.65344 108.445 6.91518L103.66 9.92522L105.349 14.8983C105.489 15.291 105.349 15.5527 105.067 15.8144C104.927 15.9453 104.786 15.9453 104.645 15.9453Z" fill="#FFAD00"/>
<path fill-rule="evenodd" clip-rule="evenodd" d="M134.864 15.9453C134.723 15.9453 134.442 15.9453 134.301 15.8144L129.797 12.8044L125.294 15.8144C125.012 16.0762 124.59 16.0762 124.309 15.8144C124.027 15.5527 123.887 15.291 124.027 14.8983L125.716 9.92522L121.213 6.91518C120.931 6.65344 120.79 6.39169 120.931 5.99908C121.072 5.60646 121.353 5.47559 121.776 5.47559H127.405L129.094 0.502487C129.375 -0.151871 130.501 -0.151871 130.783 0.502487L132.471 5.47559H138.101C138.523 5.47559 138.804 5.73734 138.945 5.99908C139.086 6.26082 138.945 6.65344 138.664 6.91518L133.879 9.92522L135.567 14.8983C135.708 15.291 135.567 15.5527 135.286 15.8144C135.145 15.9453 135.005 15.9453 134.864 15.9453Z" fill="#C4C4C4"/>
<path d="M125.294 15.8147L129.797 12.8046V0.020752C129.496 0.0586737 129.216 0.219334 129.094 0.502733L127.405 5.47584H121.776C121.353 5.47584 121.072 5.60671 120.931 5.99932C120.79 6.39194 120.931 6.65368 121.213 6.91542L125.716 9.92547L124.027 14.8986C123.887 15.2912 124.027 15.5529 124.309 15.8147C124.59 16.0764 125.012 16.0764 125.294 15.8147Z" fill="#FFAD00"/>
</svg>
